<svg width="128" height="128" viewBox="0 0 128 128" fill="none" xmlns="http://www.w3.org/2000/svg">
<path d="M66.61 15.3901C39.48 15.3901 17.5 22.6001 17.5 31.4901L25.65 103.93C26.45 112.72 42.52 124 66.62 124C90.72 124 106.59 113.43 107.59 103.93L115.74 31.4901C115.72 22.6001 93.73 15.3901 66.61 15.3901V15.3901Z" fill="#03A9F4"/>
<path d="M115.47 25.8002C115.47 16.9102 94.06 10.4502 66.14 10.4502C42.18 10.4502 21.76 15.4902 16.54 22.6202L18.01 36.1102C18.01 36.1102 28.97 44.6702 66.6 44.6702C67.95 44.6702 69.26 44.6502 70.54 44.6302L71.81 58.3702H74.02L76.77 44.4202C106.27 42.9202 115.3 35.1802 115.3 35.1802L115.47 25.8002V25.8002Z" fill="#1F6ABF"/>
<path d="M122.59 18.08C122.59 18.08 100.15 12.98 65.8998 12.98C31.6498 12.98 10.0298 17.46 10.0298 17.46C10.6598 24.81 13.4998 31.33 13.4998 31.33C13.4998 31.33 22.8598 41.29 66.3698 41.29C109.88 41.29 119.04 32.31 120.38 30.81C121.72 29.29 122.59 18.08 122.59 18.08V18.08Z" fill="#03A9F4"/>
<path d="M122.51 15.95C120.49 8.69 100.57 4 66.3098 4C32.0498 4 12.1298 8.69 10.1098 15.95C8.27983 22.55 25.8098 29.69 66.3098 29.69C106.81 29.69 124.34 22.55 122.51 15.95V15.95Z" fill="#81D4FA"/>
<path d="M66.3099 23.2498C92.6208 23.2498 113.95 19.7352 113.95 15.3998C113.95 11.0644 92.6208 7.5498 66.3099 7.5498C39.9991 7.5498 18.6699 11.0644 18.6699 15.3998C18.6699 19.7352 39.9991 23.2498 66.3099 23.2498Z" fill="#1F6ABF"/>
<path d="M60.7399 7.5498C32.0199 8.5198 18.6699 12.2698 18.6699 15.3998C18.6699 19.7298 39.2099 22.7398 60.7399 23.2498V7.5498Z" fill="url(#paint0_linear_437_77)"/>
<path d="M82.97 53.75C70.7 60.68 39.27 77.06 22.48 75.74L23.97 89.36C25.41 89.58 58.67 90.34 87.49 56.71L82.97 53.75Z" fill="#1F6ABF"/>
<path d="M17.9001 34.9399C10.6901 42.0799 2.65005 50.9899 6.61005 60.6099C8.04005 64.0799 11.0301 65.9399 12.8301 66.7399C12.8301 66.7399 12.8901 66.0599 13.0501 64.9099C13.6501 60.4899 15.9001 55.6499 19.6301 50.3199L17.9001 34.9399Z" fill="#757575"/>
<path d="M88.1401 52.4998C86.7001 48.5398 82.2201 50.6998 82.2201 50.6998C68.6201 58.3798 32.2201 76.0998 14.4201 68.9798C9.78009 67.1298 5.93009 64.8198 3.54009 58.5698C3.52009 63.0698 9.14009 75.8098 13.7501 78.1498C17.4901 80.0398 21.8001 81.2998 26.9901 81.2998C35.7601 81.2998 46.7101 78.3098 59.7501 72.3398C74.6101 65.5398 85.8401 57.9298 86.3501 57.5898C86.3601 57.5798 89.4501 56.1098 88.1401 52.4998Z" fill="#9E9E9E"/>
<path d="M86.3502 48.4102C84.3102 46.8602 80.8502 47.5802 77.9802 49.0602C76.8302 49.4802 67.7602 55.4902 52.9702 61.2702C33.7702 68.7702 19.5302 70.0502 11.8002 64.9802C7.60017 62.2202 6.00017 58.5802 6.92017 53.8202C8.01017 48.1702 12.1202 42.1602 18.0202 36.0702L17.7902 34.0502L16.2402 33.2202C9.68017 39.7802 4.94017 46.5902 3.67017 53.2002C2.50017 59.2502 4.69017 64.2902 9.99017 67.7602C13.8702 70.3002 18.7502 71.3402 24.1502 71.3402C47.5302 71.3402 79.1902 52.5302 80.8802 51.5102C80.8802 51.5102 85.4002 48.8002 87.7102 52.1902C88.0602 52.7002 88.5502 53.6802 88.3802 55.0102C88.3802 55.0102 89.5502 50.8502 86.3502 48.4102V48.4102Z" fill="#E0E0E0"/>
<defs>
<linearGradient id="paint0_linear_437_77" x1="18.6669" y1="15.3988" x2="60.7419" y2="15.3988" gradientUnits="userSpaceOnUse">
<stop stop-color="#0A488F"/>
<stop offset="1" stop-color="#0A488F" stop-opacity="0"/>
</linearGradient>
</defs>
</svg>
