<svg width="26" height="24" viewBox="0 0 26 24" fill="none" xmlns="http://www.w3.org/2000/svg">
<path d="M15.294 20.0587C19.7859 20.0587 22.0324 20.0587 23.4273 18.6626C24.8234 17.2678 24.8234 15.0212 24.8234 10.5293C24.8234 6.03745 24.8234 3.79091 23.4273 2.39605C22.0324 1 19.7859 1 15.294 1H10.5293C6.03745 1 3.79091 1 2.39605 2.39605C1 3.79091 1 6.03745 1 10.5293C1 15.0212 1 17.2678 2.39605 18.6626C3.17388 19.4417 4.21615 19.7859 5.76467 19.9372" stroke="black" stroke-width="2" stroke-linecap="round" stroke-linejoin="round"/>
<path d="M15.2941 20.0587C13.8218 20.0587 12.1994 20.6543 10.7188 21.4226C8.33884 22.6579 7.14886 23.2761 6.5628 22.8818C5.97675 22.4887 6.08753 21.2678 6.31028 18.8271L6.36031 18.272" stroke="black" stroke-width="2" stroke-linecap="round"/>
</svg>
