<svg width="20" height="20" viewBox="0 0 20 20" fill="none" xmlns="http://www.w3.org/2000/svg">
<g clip-path="url(#clip0_434_67)">
<path d="M10 0C4.47717 0 0 4.47717 0 10C0 15.5228 4.47717 20 10 20C15.5228 20 20 15.5228 20 10C20 4.47717 15.5228 0 10 0ZM10 17.8261C5.67717 17.8261 2.17392 14.3217 2.17392 10C2.17392 5.67827 5.67717 2.17392 10 2.17392C14.3228 2.17392 17.8261 5.67827 17.8261 10C17.8261 14.3217 14.3228 17.8261 10 17.8261ZM11.9565 5.81522H8.04347V10.2609H5.59783L10 14.4022L14.4022 10.2609H11.9565L11.9565 5.81522V5.81522Z" fill="#942A09"/>
</g>
<defs>
<clipPath id="clip0_434_67">
<rect width="20" height="20" fill="white"/>
</clipPath>
</defs>
</svg>
