<svg width="20" height="20" viewBox="0 0 20 20" fill="none" xmlns="http://www.w3.org/2000/svg">
<path d="M14.375 5C14.375 5.16576 14.4408 5.32473 14.5581 5.44194C14.6753 5.55915 14.8342 5.625 15 5.625H17.1875C17.4361 5.625 17.6746 5.72377 17.8504 5.89959C18.0262 6.0754 18.125 6.31386 18.125 6.5625C18.125 6.81114 18.0262 7.0496 17.8504 7.22541C17.6746 7.40123 17.4361 7.5 17.1875 7.5H15C14.337 7.5 13.7011 7.23661 13.2322 6.76777C12.7634 6.29893 12.5 5.66304 12.5 5V2.8125C12.5 2.56386 12.5988 2.3254 12.7746 2.14959C12.9504 1.97377 13.1889 1.875 13.4375 1.875C13.6861 1.875 13.9246 1.97377 14.1004 2.14959C14.2762 2.3254 14.375 2.56386 14.375 2.8125V5ZM14.375 15C14.375 14.8342 14.4408 14.6753 14.5581 14.5581C14.6753 14.4408 14.8342 14.375 15 14.375H17.1875C17.4361 14.375 17.6746 14.2762 17.8504 14.1004C18.0262 13.9246 18.125 13.6861 18.125 13.4375C18.125 13.1889 18.0262 12.9504 17.8504 12.7746C17.6746 12.5988 17.4361 12.5 17.1875 12.5H15C14.337 12.5 13.7011 12.7634 13.2322 13.2322C12.7634 13.7011 12.5 14.337 12.5 15V17.1875C12.5 17.4361 12.5988 17.6746 12.7746 17.8504C12.9504 18.0262 13.1889 18.125 13.4375 18.125C13.6861 18.125 13.9246 18.0262 14.1004 17.8504C14.2762 17.6746 14.375 17.4361 14.375 17.1875V15ZM5 14.375C5.16576 14.375 5.32473 14.4408 5.44194 14.5581C5.55915 14.6753 5.625 14.8342 5.625 15V17.1875C5.625 17.4361 5.72377 17.6746 5.89959 17.8504C6.0754 18.0262 6.31386 18.125 6.5625 18.125C6.81114 18.125 7.0496 18.0262 7.22541 17.8504C7.40123 17.6746 7.5 17.4361 7.5 17.1875V15C7.5 14.337 7.23661 13.7011 6.76777 13.2322C6.29893 12.7634 5.66304 12.5 5 12.5H2.8125C2.56386 12.5 2.3254 12.5988 2.14959 12.7746C1.97377 12.9504 1.875 13.1889 1.875 13.4375C1.875 13.6861 1.97377 13.9246 2.14959 14.1004C2.3254 14.2762 2.56386 14.375 2.8125 14.375H5ZM5.625 5C5.625 5.16576 5.55915 5.32473 5.44194 5.44194C5.32473 5.55915 5.16576 5.625 5 5.625H2.8125C2.56386 5.625 2.3254 5.72377 2.14959 5.89959C1.97377 6.0754 1.875 6.31386 1.875 6.5625C1.875 6.81114 1.97377 7.0496 2.14959 7.22541C2.3254 7.40123 2.56386 7.5 2.8125 7.5H5C5.66304 7.5 6.29893 7.23661 6.76777 6.76777C7.23661 6.29893 7.5 5.66304 7.5 5V2.8125C7.5 2.56386 7.40123 2.3254 7.22541 2.14959C7.0496 1.97377 6.81114 1.875 6.5625 1.875C6.31386 1.875 6.0754 1.97377 5.89959 2.14959C5.72377 2.3254 5.625 2.56386 5.625 2.8125V5Z" fill="black"/>
</svg>
