<svg width="312" height="312" viewBox="0 0 312 312" fill="none" xmlns="http://www.w3.org/2000/svg">
<path d="M260 266.5H52C37.7 266.5 26 254.8 26 240.5V71.5C26 57.2 37.7 45.5 52 45.5H260C274.3 45.5 286 57.2 286 71.5V240.5C286 254.8 274.3 266.5 260 266.5Z" fill="#F57C00"/>
<path d="M227.5 123.5C238.27 123.5 247 114.77 247 104C247 93.2304 238.27 84.5 227.5 84.5C216.73 84.5 208 93.2304 208 104C208 114.77 216.73 123.5 227.5 123.5Z" fill="#FFF9C4"/>
<path d="M130 104L58.5 208H201.5L130 104Z" fill="#942A09"/>
<path d="M201.5 143L149.5 208H253.5L201.5 143Z" fill="#BF360C"/>
</svg>
