<svg width="30" height="22" viewBox="0 0 30 22" fill="none" xmlns="http://www.w3.org/2000/svg">
<path d="M29.9396 10.66C28.7634 7.61765 26.7216 4.98662 24.0664 3.09209C21.4112 1.19756 18.2591 0.122573 14.9996 0C11.7401 0.122573 8.58796 1.19756 5.93278 3.09209C3.27759 4.98662 1.23574 7.61765 0.0595746 10.66C-0.0198582 10.8797 -0.0198582 11.1203 0.0595746 11.34C1.23574 14.3824 3.27759 17.0134 5.93278 18.9079C8.58796 20.8024 11.7401 21.8774 14.9996 22C18.2591 21.8774 21.4112 20.8024 24.0664 18.9079C26.7216 17.0134 28.7634 14.3824 29.9396 11.34C30.019 11.1203 30.019 10.8797 29.9396 10.66V10.66ZM14.9996 20C9.69957 20 4.09957 16.07 2.06957 11C4.09957 5.93 9.69957 2 14.9996 2C20.2996 2 25.8996 5.93 27.9296 11C25.8996 16.07 20.2996 20 14.9996 20Z" fill="black"/>
<path d="M14.9995 5C13.8128 5 12.6528 5.35189 11.6661 6.01118C10.6794 6.67047 9.91036 7.60754 9.45624 8.7039C9.00211 9.80026 8.88329 11.0067 9.1148 12.1705C9.34631 13.3344 9.91776 14.4035 10.7569 15.2426C11.596 16.0818 12.6651 16.6532 13.829 16.8847C14.9929 17.1162 16.1993 16.9974 17.2956 16.5433C18.392 16.0892 19.329 15.3201 19.9883 14.3334C20.6476 13.3467 20.9995 12.1867 20.9995 11C20.9995 9.4087 20.3674 7.88258 19.2422 6.75736C18.1169 5.63214 16.5908 5 14.9995 5ZM14.9995 15C14.2084 15 13.435 14.7654 12.7772 14.3259C12.1194 13.8864 11.6067 13.2616 11.304 12.5307C11.0012 11.7998 10.922 10.9956 11.0764 10.2196C11.2307 9.44371 11.6117 8.73098 12.1711 8.17157C12.7305 7.61216 13.4432 7.2312 14.2192 7.07686C14.9951 6.92252 15.7993 7.00173 16.5302 7.30448C17.2612 7.60723 17.8859 8.11992 18.3254 8.77772C18.7649 9.43552 18.9995 10.2089 18.9995 11C18.9995 12.0609 18.5781 13.0783 17.8279 13.8284C17.0778 14.5786 16.0604 15 14.9995 15Z" fill="black"/>
</svg>
